<svg xmlns="http://www.w3.org/2000/svg" width="256" height="256"><path fill="#1976D2" fill-opacity=".016" fill-rule="evenodd" d="M0 128.004v128.004l128.25-.254 128.25-.254.254-127.75L257.008 0H0zm.485.496c0 70.4.119 99.053.265 63.672s.146-92.98 0-128S.485 58.1.485 128.5"/><path fill="#1976D2" fill-opacity=".33" fill-rule="evenodd" d="M17.018 7.949c-3.729 1.293-6.822 3.318-9.669 6.331C-.359 22.439 0 16.883 0 128c0 111.439-.38 105.673 7.474 113.526C15.357 249.41 8.747 249 128 249c119.249 0 112.643.409 120.524-7.471 2.726-2.727 4.799-5.954 5.576-8.684.68-2.39 1.611-4.773 2.069-5.295 1.236-1.413 1.068-200.815-.169-200.05-.55.34-1-.326-1-1.481 0-5.242-6.811-13.833-14-17.657-3.343-1.779-8.319-1.872-111-2.089C26.622 6.056 22.29 6.12 17.018 7.949M.481 128c0 55.275.121 77.887.269 50.25.148-27.638.148-72.863 0-100.5C.602 50.112.481 72.725.481 128m166.961-89.71c-.272.71-.371 8.472-.218 17.25.205 11.871.596 15.992 1.526 16.085.688.069 3.5.181 6.25.25l5 .125v3.961c0 3.677 2.776 8.039 5.116 8.039 1.721 0 4.884-5.523 4.884-8.528 0-3.833 1.579-4.723 6.878-3.876 2.56.41 4.078.161 4.873-.796 1.251-1.508 1.956-30.847.787-32.739-1.023-1.654-34.457-1.436-35.096.229m-93.244 4.383C70.133 44.676 68 48.592 68 54.05 68 59.725 73.034 65 78.45 65c10.021 0 16.596-10.035 11.844-18.08-1.871-3.167-6.77-5.933-10.445-5.897-1.292.012-3.835.755-5.651 1.65m2.14 2.96c-3.837 1.859-5.602 4.89-4.847 8.326 1.521 6.925 9.863 9.656 14.176 4.642 3.003-3.492 2.956-6.708-.155-10.405-3.097-3.68-5.488-4.348-9.174-2.563m102.114 2.013c-3.475 3.75-3.348 9.128.298 12.596 4.075 3.876 7.158 4.293 11.275 1.527 2.945-1.979 3.523-2.997 3.789-6.68.261-3.619-.147-4.827-2.437-7.218-3.749-3.912-9.416-4.011-12.925-.225m-81.788 3.673c.317 1.954.129 4.835-.418 6.404l-.994 2.852 4.624-.021c2.543-.011 8.337.34 12.874.781l8.25.802v-3.368c0-1.853.476-3.845 1.058-4.427.743-.743-2.005-1.694-9.25-3.202-18.669-3.886-16.807-3.907-16.144.179m36.71-1.63c-6.702 1.316-9.271 11.422-4.046 15.917 7.533 6.479 18.429-1.536 14.613-10.748-.796-1.922-2.541-3.629-4.581-4.481-1.813-.757-3.423-1.316-3.578-1.241s-1.239.324-2.408.553m6.204 10.186c-1.044 1.688-6.542 2.4-8.161 1.056-2.669-2.215-3.728.404-1.373 3.398 2.613 3.322 7.568 3.613 10.767.632 1.204-1.121 2.189-2.416 2.189-2.878 0-1.467-2.774-3.258-3.422-2.208M67.217 82.291c-1.769 7.887-3.218 14.76-3.219 15.274-.001.545 3.441.726 8.25.435l8.252-.5.677-5 1.734-12.82c.582-4.301 1.283-8.185 1.559-8.631.275-.446-2.08-1.027-5.235-1.291-3.154-.264-6.425-.778-7.268-1.143-1.263-.546-2.1 1.862-4.75 13.676m62.45 8.376c-.775.774-.917 31.518-.155 33.503.41 1.069 5.864 1.313 27.515 1.233 14.852-.055 27.202-.299 27.445-.541s.502-8.073.579-17.401l.138-16.961-9.844-.283-9.845-.284V112.5h-16V89.997l-9.583.002c-5.271 0-9.884.301-10.25.668M57.25 105.989c-3.217 1.962-3.25 2.059-3.25 9.746v7.765l18.75-.206c10.312-.114 19.313-.226 20-.25.799-.028 1.25-1.591 1.25-4.328 0-3.847-.54-4.817-5.281-9.5L83.437 104l-11.468.004c-9.669.003-11.979.314-14.719 1.985m4.112 7.511c-1.408 3.668 2.65 6.917 5.313 4.253 1.201-1.201 1.283-1.964.387-3.636-1.306-2.441-4.853-2.825-5.7-.617m10.049-.129c-1.112 2.897.021 5.129 2.603 5.129 2.096 0 2.486-.471 2.486-3 0-2.352-.487-3.069-2.254-3.32-1.323-.188-2.495.305-2.835 1.191m9.678.022c-1.654 1.992.266 5.607 2.978 5.607 2.414 0 3.633-2.665 2.235-4.886-1.379-2.19-3.725-2.514-5.213-.721M38.981 133.75c-5.335 4.81-4.997 13.227.68 16.948 2.587 1.695 7.611 1.814 84.295 2.002 55.023.136 83.118-.148 86.382-.871 3.755-.831 5.266-1.772 6.746-4.2 3.553-5.825 1.904-12.611-3.768-15.512-1.558-.797-26.432-1.117-86.734-1.117h-84.55zm25.769-.003c-6.148.377-6.496.682-4.218 3.694 1.861 2.461 1.833 6.493-.064 9-.807 1.068-1.468 2.305-1.468 2.75s4.12.809 9.155.809c8.653 0 9.069-.096 7.578-1.75-2.825-3.134-3.131-6.91-.872-10.739 1.99-3.373 1.997-3.511.187-3.511-1.036 0-2.484-.136-3.216-.303s-3.92-.144-7.082.05m53.844.124c-2.568.556-2.721.783-1.315 1.948 2.476 2.052 3.06 6.624 1.284 10.058-.859 1.663-1.563 3.271-1.563 3.573s3.825.55 8.5.55 8.486-.338 8.468-.75c-.017-.412-.692-1.624-1.5-2.691-2.072-2.739-1.822-6.839.605-9.924l2.072-2.635h-5.491c-3.02 0-6.09-.17-6.822-.379-.733-.208-2.64-.095-4.238.25m33.216-.123-6.69.341 2.086 3.536c1.989 3.371 2.01 3.699.441 6.99-.906 1.899-1.647 3.888-1.647 4.419 0 .546 3.699.966 8.5.966 8.444 0 9.875-.614 7-3-2.152-1.786-1.848-7.288.573-10.365 1.632-2.075 1.755-2.635.581-2.635-.82 0-2.09-.133-2.822-.296s-4.343-.143-8.022.044m23.94.036c-2.139.443-2.182.927-.25 2.859 1.975 1.975 1.914 7.796-.115 10.892L173.77 150h18.343l-1.556-2.223c-2.01-2.869-1.989-7.715.045-10.619.881-1.258 1.374-2.515 1.096-2.793-.617-.617-13.509-1.086-15.948-.581M40 136c-4.488 4.488-.766 14 5.478 14 2.524 0 2.539-.044.894-2.554-2.059-3.143-2.029-8.063.064-10.375C48.675 134.597 48.396 134 45 134c-1.667 0-3.889.889-5 2m48.927.635c2.408 3.061 2.579 5.856.573 9.365-.786 1.375-1.445 2.838-1.465 3.25-.019.412 3.79.75 8.465.75s8.486-.338 8.468-.75c-.017-.412-.692-1.624-1.5-2.691-1.995-2.639-1.839-5.439.521-9.309l1.982-3.25H86.855zM203 134.571c0 .315.715 1.287 1.59 2.162 1.593 1.593 1.557 5.932-.093 11.017-.663 2.042-.409 2.25 2.752 2.25 5.164 0 8.751-3.232 8.751-7.884 0-5.386-2.873-8.116-8.539-8.116-2.454 0-4.461.257-4.461.571m-95.25 2.001c-2.146 1.164-2.75 2.219-2.75 4.805 0 5.852 6.614 8.917 10.345 4.794 2.403-2.655 2.033-5.917-.991-8.719-3.069-2.844-3.001-2.835-6.604-.88m28.5.102c-2.82 1.968-3.052 7.29-.421 9.671 2.61 2.362 6.753 2.089 8.614-.568 2.194-3.132 1.94-5.485-.898-8.322-2.824-2.825-4.16-2.968-7.295-.781m-86.921.101c-2.165 1.378-2.658 6.074-.916 8.732 3.171 4.84 10.587 2.442 10.587-3.423 0-4.645-5.751-7.802-9.671-5.309m28.421.305c-2.359 1.374-2.31 7.103.079 9.265C81.854 149.988 88 147.413 88 142.084c0-4.954-5.623-7.699-10.25-5.004m86.496.074c-1.772 1.772-1.543 7.407.379 9.329 2.433 2.432 7.493 1.589 9.241-1.54 1.229-2.201 1.232-2.967.024-5.5-1.101-2.307-2.16-3.007-4.901-3.239-1.924-.162-4.058.265-4.743.95m28.71.399c-1.924 2.318-1.599 7.504.568 9.089 3.058 2.236 7.215 1.686 9.109-1.204 1.56-2.382 1.563-2.804.039-6-1.393-2.92-2.151-3.438-5.033-3.438-1.867 0-3.974.699-4.683 1.553M110 194.975c0 3.702-.155 3.918-2.25 3.144-4.687-1.733-7.75 1.199-7.75 7.417 0 5.49 2.095 7.325 8.25 7.224l4.75-.077v-10.841c0-8.971-.259-10.842-1.5-10.842-1.082 0-1.5 1.108-1.5 3.975M177.232 193c-1.01 1.617-.999 2 .06 2 1.447 0 3.708-1.951 3.708-3.2 0-1.573-2.542-.763-3.768 1.2m-121.565-.333c-.367.366-.667 5.091-.667 10.5 0 8.074.268 9.833 1.5 9.833 1.083 0 1.5-1.111 1.5-4v-4h4.345c4.924 0 7.664-2.181 7.64-6.079-.021-3.265-1.004-4.597-4.32-5.858-3.124-1.188-8.975-1.42-9.998-.396M164 193.5c0 .825.675 1.5 1.5 1.5s1.5-.675 1.5-1.5-.675-1.5-1.5-1.5-1.5.675-1.5 1.5m-106 5.031c0 4.062 1.831 5.266 5.857 3.85 5.268-1.852 3.411-7.381-2.479-7.381-3.2 0-3.378.187-3.378 3.531m29.315-.515c-7.007 2.794-5.02 15.01 2.435 14.969 3.309-.019 4.582-.784 6.1-3.669 3.445-6.545-2.087-13.87-8.535-11.3m48.92.03c-6.585 2.619-4.236 14.954 2.849 14.954 2.704 0 5.916-2.21 5.916-4.071 0-1.555-2.745-1.035-3.389.641-.359.938-1.502 1.441-2.836 1.25-2.965-.425-4.548-4.829-2.975-8.28 1.284-2.819 4.908-3.465 5.838-1.04.723 1.882 3.362 1.978 3.362.122 0-2.925-5.134-5.02-8.765-3.576m16.765-.27c-4.899 1.583-6.694 8.36-3.443 13.001 2.402 3.43 10.443 2.419 10.443-1.312 0-1.919-.917-1.85-3.23.243-3.546 3.209-6.841-1.307-5.334-7.31.723-2.881 4.219-3.252 6.122-.65 1.562 2.136 3.277.799 1.859-1.449-1.228-1.947-4.373-3.183-6.417-2.523m40.249.287c-1.238.48-2.926.615-3.75.298-1.251-.48-1.499.684-1.499 7.032 0 6.084.299 7.607 1.495 7.607 1.164 0 1.467-1.236 1.367-5.567-.137-5.969.83-7.829 3.782-7.267 1.532.292 1.908 1.445 2.154 6.594.226 4.744.657 6.24 1.795 6.24 1.21 0 1.441-1.276 1.203-6.633-.334-7.475-2.289-9.955-6.547-8.304M74 205.698c0 4.201.425 7.302 1 7.302.55 0 1-2.218 1-4.929 0-4.693 1.704-8.071 4.071-8.071.511 0 .929-.405.929-.901s-1.575-.856-3.5-.802l-3.5.099zm43-1.32c0 3.882.489 6.783 1.25 7.414.688.57 3.388 1.003 6 .964l4.75-.073v-7.341c0-5.86-.303-7.342-1.5-7.342-1.165 0-1.5 1.326-1.5 5.933 0 5.045-.298 6.027-1.991 6.564-3.222 1.023-4.009-.265-4.009-6.556 0-4.614-.335-5.941-1.5-5.941-1.177 0-1.5 1.375-1.5 6.378m47 1.122c0 6 .3 7.5 1.5 7.5s1.5-1.5 1.5-7.5-.3-7.5-1.5-7.5-1.5 1.5-1.5 7.5m8.571-5.929c-2.477 2.478-2.381 8.813.177 11.679 2.278 2.553 7.764 2.285 9.695-.473 2.15-3.068 2.003-9.063-.272-11.122-2.313-2.094-7.544-2.139-9.6-.084M87.2 201.2c-1.666 1.666-1.504 7.303.252 8.76 2.09 1.735 5.439.324 6.173-2.6 1.302-5.191-3.137-9.448-6.425-6.16m16.467-.533c-1.321 1.32-.66 8.094.917 9.403 3.302 2.74 6.397-2.027 4.98-7.672-.419-1.667-1.308-2.398-2.916-2.398-1.273 0-2.615.3-2.981.667m70.249 2.055c-1.842 4.843 2.198 10.088 5.597 7.267 1.519-1.26 1.97-5.567.88-8.407-1.035-2.697-5.304-1.946-6.477 1.14"/><path fill="#1976D2" fill-opacity=".483" fill-rule="evenodd" d="M95.829 7.989c-1.469.437-18.332.863-37.474.945-20.708.089-36.511.58-39.021 1.212-5.7 1.435-11.783 6.843-13.883 12.344-.939 2.458-2.052 4.256-2.474 3.996s-1.04.235-1.372 1.102c-1.124 2.929-.673 200.627.467 204.733 1.356 4.881 7.284 11.471 12.428 13.813 3.792 1.727 9.702 1.822 113.5 1.822s109.708-.095 113.5-1.822c5.11-2.327 11.066-8.919 12.488-13.822.785-2.705 1.02-33.599.809-106.391L254.5 23.343l-3.026-4.895c-1.876-3.034-4.888-6.046-7.922-7.922L238.657 7.5l-70.079-.154c-38.543-.084-71.28.205-72.749.643m70.786 30.571c-1.193 3.109-.685 31.97.585 33.24.66.66 3.81 1.2 7 1.2h5.8v3.826c0 3.729 3.067 8.174 5.64 8.174 2.306 0 5.36-4.71 5.36-8.267v-3.638l6.25-.297 6.25-.298v-35l-18.135-.272c-15.88-.238-18.211-.073-18.75 1.332m-94 4.528C62.529 51.022 67.357 66 80 66s17.471-14.978 7.385-22.912c-3.635-2.859-11.135-2.859-14.77 0m2.652 4.878c-3.05 2.842-3.587 5.515-1.8 8.97 2.746 5.31 10.288 5.372 13.011.106 3.753-7.257-5.299-14.584-11.211-9.076m104.188.489C174.267 53.643 177.854 63 185.031 63c3.701 0 8.969-4.693 8.969-7.989 0-7.831-9.147-11.954-14.545-6.556M95.5 53.954v7.159c0 .062 6.201.636 13.78 1.274l13.779 1.16-.571-2.6c-.314-1.43-.122-3.779.426-5.22 1.176-3.093 1.859-2.789-12.914-5.742-5.775-1.154-11.4-2.319-12.5-2.588-1.857-.453-2 .015-2 6.557m35.857-3.962c-3.103 1.252-5.357 4.953-5.357 8.796 0 4.393 1.409 6.855 4.98 8.702 4.451 2.301 7.81 1.874 11.097-1.413 2.362-2.362 2.923-3.784 2.923-7.411 0-3.784-.483-4.894-3.077-7.077-3.129-2.634-6.672-3.169-10.566-1.597M129 61.822c0 1.625 2.901 4.115 5.577 4.787 2.871.72 7.423-1.879 7.423-4.239 0-1.146-.484-1.363-1.75-.787-2.249 1.025-7.251 1.025-9.5 0-1.053-.48-1.75-.385-1.75.239M69.988 67.75c-.006.412-1.581 7.451-3.5 15.64C64.57 91.58 63 98.442 63 98.64s4.275.36 9.5.36H82v-3.011c0-2.831 2.425-19.833 3.527-24.722.476-2.114.268-2.201-3.914-1.627-3.088.423-5.394.117-7.668-1.018-3.708-1.849-3.941-1.901-3.957-.872m59.694 21.901c-.375.375-.682 8.699-.682 18.497 0 17.644.021 17.819 2.25 18.364 1.238.303 13.95.424 28.25.269l26-.281v-37l-27.568-.265c-15.162-.147-27.875.041-28.25.416m20.534 11.948.284 10.599 7.25.151 7.251.151-.001-10.75V91h-15.068zM57.75 105.22c-2.062 1.195-3.789 2.872-3.836 3.727-.047.854-.086 4.703-.087 8.553l-.001 7 20.587.27 20.587.271v-4.964c0-4.641-.364-5.356-5.608-11.02L83.785 103l-11.143.023c-9.596.02-11.662.325-14.892 2.197m4.64 9.206c-.91 2.371.377 4.765 2.357 4.384 1.107-.213 1.753-1.249 1.753-2.81 0-2.851-3.156-4.059-4.11-1.574m9.604.081c-1.103 1.329-1.076 1.84.164 3.08 2.021 2.021 5.033.754 4.645-1.954-.377-2.626-3.045-3.251-4.809-1.126m9.964.043c-1.062 1.281-.997 1.84.378 3.214 1.552 1.553 1.776 1.553 3.328 0 1.375-1.374 1.44-1.933.378-3.214-.708-.852-1.627-1.55-2.042-1.55s-1.334.698-2.042 1.55m-40.58 16.878c-4.407 1.931-6.378 5.224-6.378 10.66 0 5.739 2.637 9.436 7.804 10.94 2.544.74 29.568.981 86.696.774 90.134-.328 85.423-.017 88.884-5.874 2.73-4.622 2.095-9.435-1.807-13.693l-3.423-3.735-84.327-.22c-69.502-.181-84.876.021-87.449 1.148m1.568 4.352c-2.969 1.482-3.487 2.28-3.744 5.772-.32 4.361 1.261 6.59 5.62 7.92 2.295.7 2.304.672.75-2.332-2.005-3.877-1.995-7.091.03-9.982 2.154-3.075 1.463-3.434-2.656-1.378m18.893-1.108c-1.479.392-1.507.738-.257 3.134 1.808 3.465 1.791 6.318-.05 8.753-.808 1.067-1.483 2.239-1.5 2.603-.018.365 3.555.647 7.939.628 7.895-.035 7.957-.055 6.5-2.135-1.891-2.7-1.884-7.621.015-10.331 1.322-1.888 1.313-2.187-.082-2.723-1.735-.665-9.962-.619-12.565.071m28.359 3.216c2.179 4.274 2.198 4.829.296 8.476-.822 1.576-1.494 2.999-1.494 3.163s3.587.282 7.971.263c7.895-.035 7.957-.055 6.5-2.135-1.917-2.736-1.876-7.631.086-10.432 1.809-2.584 2.14-2.467-7.609-2.694l-7.552-.176zm27.883-2.938c-.965.596-.997.984-.126 1.522 2.419 1.495 3.087 5.491 1.538 9.198-.821 1.966-1.493 3.717-1.493 3.891s3.573.324 7.94.334l7.941.017-2.019-3.421c-2.151-3.646-1.878-6.565.911-9.741 1.749-1.992 2.223-1.843-7.335-2.306-3.334-.162-6.645.066-7.357.506m29.491.025c-1.607.564-1.622.738-.169 1.945 2.04 1.692 2.084 7.939.077 10.805l-1.52 2.171 8.02-.053c4.411-.029 8.02-.161 8.02-.294s-.709-1.663-1.576-3.401c-1.289-2.583-1.366-3.795-.422-6.653.634-1.922 1.568-3.495 2.076-3.495.507 0 .922-.427.922-.949 0-1.028-12.539-1.09-15.428-.076m27.46-.041c.017.311.692 1.44 1.5 2.507 1.903 2.516 1.877 7.53-.052 10.284l-1.521 2.171 8.052-.105c4.428-.057 7.91-.371 7.738-.698-3.37-6.385-3.36-5.976-.336-13.159.567-1.346-.469-1.566-7.377-1.566-4.42 0-8.022.255-8.004.566m30.411 2.289c1.968 2.809 1.979 6.061.031 9.827-1.498 2.898-1.48 2.95 1.05 2.95 3.848 0 8.367-2.719 9.052-5.446 1.367-5.448-1.944-9.554-7.704-9.554-3.919 0-3.959.037-2.429 2.223m-156.408 1.711c-1.647 3.078-1.212 5.829 1.188 7.509 2.937 2.058 4.37 1.964 6.777-.443 2.402-2.402 2.569-5.288.429-7.429-2.23-2.229-7.119-2.018-8.394.363M78.2 138.2c-2.135 2.135-1.423 6.608 1.341 8.419 5.039 3.302 10.335-2.107 7.019-7.168-1.754-2.677-6.26-3.351-8.36-1.251m29.045-.045c-.685.685-1.245 2.74-1.245 4.566 0 2.573.564 3.579 2.5 4.461 5.098 2.323 9.599-2.328 7.111-7.348-1.32-2.665-6.367-3.678-8.366-1.679m28.136 1.386c-3.19 4.869 2.273 10.32 7.526 7.509 2.369-1.268 2.929-6.814.893-8.85-2.135-2.135-6.608-1.423-8.419 1.341m29.274-.712c-2.221 2.453-2.084 4.742.432 7.258 2.204 2.204 6.614 1.978 8.138-.416 1.153-1.814.908-6.138-.425-7.471-1.793-1.793-6.266-1.448-8.145.629m28.916-.258c-2.14 2.141-1.973 5.027.429 7.429 2.407 2.407 3.84 2.501 6.777.443 2.449-1.715 3.012-6.254 1.023-8.243-1.699-1.699-6.369-1.488-8.229.371M109 194.327c0 3.09-.203 3.297-2.855 2.908-4.199-.617-7.524 3.848-6.817 9.153.637 4.778 2.552 6.827 6.306 6.751 8.201-.168 7.366 1.096 7.366-11.15 0-10.322-.121-10.989-2-10.989-1.599 0-2 .667-2 3.327m54.667-2.66c-1.327 1.327-.625 3.333 1.166 3.333 2.541 0 3.357-1.066 2.036-2.658-1.231-1.483-2.192-1.685-3.202-.675m13.361.799c-2.411 2.905-.477 3.825 2.515 1.195 2.73-2.398 2.793-2.6.829-2.629-1.17-.018-2.675.628-3.344 1.434M55 202.452c0 9.881.126 10.548 2 10.548 1.659 0 2-.667 2-3.906 0-3.307.284-3.833 1.848-3.423 1.017.265 3.431-.178 5.365-.986 4.532-1.894 5.775-5.881 2.998-9.612-1.639-2.201-2.805-2.616-8.063-2.871L55 191.905zm4-3.952c0 3.189.256 3.5 2.878 3.5 3.809 0 5.637-2.17 4.156-4.936-.734-1.373-2.097-2.064-4.069-2.064-2.722 0-2.965.287-2.965 3.5m14 6.658c0 7.108.182 7.842 1.95 7.842 1.673 0 1.993-.818 2.25-5.75.266-5.094.557-5.786 2.55-6.07 1.402-.199 2.25-1.012 2.25-2.159 0-1.524-.772-1.829-4.5-1.772l-4.5.068zm12.789-6.795c-6.139 4.664-3.24 14.97 4.211 14.97 4.451 0 7-2.845 7-7.814 0-6.8-6.347-10.851-11.211-7.156m30.878-.696c-.367.366-.667 3.291-.667 6.5 0 6.817 2.529 10.54 6.342 9.338 1.187-.375 3.171-.646 4.408-.604 2.154.073 2.25-.269 2.25-7.986 0-6.951-.227-8.017-1.648-7.738-1.297.254-1.669 1.6-1.75 6.323-.097 5.706-.224 6-2.602 6-2.368 0-2.516-.329-2.798-6.25-.28-5.893-1.422-7.696-3.535-5.583m17.406 1.968c-2.568 3.264-2.671 8.405-.229 11.421 2.551 3.151 7.805 3.095 10.401-.11 2.285-2.822.808-3.848-2.776-1.929-1.284.687-3.039.978-3.902.647-1.976-.758-2.117-6.963-.194-8.559 1.449-1.203 4.627-.515 4.627 1.002 0 .491.886.893 1.969.893 1.44 0 1.805-.47 1.36-1.75-1.683-4.842-8.005-5.749-11.256-1.615m16.229-1.134c-4.791 3.356-3.659 12.28 1.847 14.561 2.586 1.071 3.324.975 5.602-.725 3.409-2.545 3.959-4.337 1.332-4.337-1.145 0-2.083.45-2.083 1s-1.116 1-2.481 1c-4.026 0-4.942-7.108-1.21-9.393 1.429-.875 2.081-.74 3.11.643 1.397 1.879 4.581 2.4 4.581.75 0-1.836-3.972-5-6.277-5-1.253 0-3.242.676-4.421 1.501m13.365-.834c-.367.366-.667 3.966-.667 8 0 6.666.182 7.333 2 7.333 1.833 0 2-.667 2-8 0-6-.333-8-1.333-8-.734 0-1.634.3-2 .667m8.406 1.968c-4.034 5.128-1.833 12.508 4.152 13.924 2.199.521 3.333.037 5.873-2.503 2.738-2.739 3.071-3.631 2.556-6.852-1.121-7.002-8.547-9.699-12.581-4.569M187 205.191c0 7.142.171 7.809 2 7.809 1.774 0 2-.667 2-5.893 0-4.464.386-6.041 1.59-6.503 2.705-1.038 3.41.296 3.41 6.455 0 5.274.224 5.941 2 5.941 1.806 0 2-.667 2-6.878 0-4.291-.47-7.261-1.25-7.898-.687-.561-3.613-.98-6.5-.931l-5.25.089zm-99.429-3.62c-2.986 2.987-.811 9.002 2.995 8.279 1.445-.274 2.015-1.35 2.253-4.257.424-5.166-2.139-7.131-5.248-4.022m16.658-.4c-2.762 2.762-1.09 8.829 2.433 8.829 2.296 0 2.429-.295 2.143-4.741-.318-4.944-2.114-6.55-4.576-4.088m70.825.264c-.655.789-1.047 2.926-.872 4.75.251 2.62.818 3.386 2.705 3.652 2.732.387 4.076-1.216 4.098-4.887.026-4.337-3.51-6.432-5.931-3.515"/><path fill="#1976D2" fill-opacity=".195" fill-rule="evenodd" d="M252.716 34.5c-.378 4.4-.699 49.763-.712 100.806-.027 101.318.287 95.877-5.926 102.952-6.338 7.219.9 6.83-121.278 6.52-86.126-.218-109.969-.547-110.95-1.528-1.519-1.519-2.85-1.619-2.85-.214 0 .569 2.062 1.919 4.583 3 4.462 1.912 7.431 1.963 112.75 1.942 106.715-.022 108.227-.049 112.667-2.062 5.598-2.538 8.581-5.276 11.347-10.416l2.153-4 .115-99.5c.11-95.001-.301-116.086-1.899-97.5m-87.281 22.078.065 17.077 2.997 3.173c2.331 2.467 3.831 3.172 6.75 3.172 3.722 0 3.932.227 4.151 4.481.056 1.09.933 2.144 1.948 2.342s2.702 1.094 3.75 1.991c1.735 1.486 1.903 3.142 1.889 18.658-.009 9.366-.377 17.598-.819 18.294-.624.983-7.054 1.207-28.726 1l-27.921-.266-.597-3-.598-3-.809 2.906c-.629 2.254-.416 3.193.948 4.19 1.535 1.123 1.143 1.333-3.103 1.664-2.673.209 11.565.408 31.64.444 20.075.035 35.733-.138 34.796-.385-1.505-.396-1.642-1.579-1.172-10.134.48-8.716-.199-16.254-2.211-24.573-.579-2.394-.204-3.336 2.194-5.512 1.591-1.443 3.669-3.969 4.618-5.612.948-1.643 2.197-2.872 2.774-2.73s2.821-.646 4.987-1.751c3.053-1.557 4.16-2.85 4.929-5.758 1.098-4.154.733-25.392-.471-27.339-.42-.68-1.095-2.625-1.501-4.323-.426-1.78-.782 3.707-.841 12.963-.07 11.027-.478 16.426-1.302 17.25-.66.66-3.81 1.2-7 1.2H191v3.813c0 2.886-.692 4.476-2.849 6.542l-2.849 2.73-3.205-2.995c-2.808-2.623-3.124-3.428-2.549-6.494l.657-3.5-6.853-.298-6.852-.298-.565-16.5-.566-16.5zm-74.42-10.887c.009.445.452 1.484.985 2.309.835 1.293.971 1.266.985-.191.008-.93-.435-1.969-.985-2.309s-.993-.254-.985.191m-23.556 1.376c-.363.586-.445 1.281-.183 1.543s.743-.218 1.069-1.067c.676-1.762.1-2.072-.886-.476m8.176 1.006c-3.255 2.56-3.604 7.74-.698 10.37 2.256 2.042 4.401 1.197 3.574-1.409-.641-2.019.782-2.855 4.495-2.64 1.697.098 2.45.693 2.357 1.864-.075.946.262 1.474.75 1.172.488-.301.887-2.064.887-3.916C87 49.906 83.361 46 80 46c-.952 0-2.916.933-4.365 2.073m104.405.733c-3.761 3.761-3.891 7.173-.415 10.888 1.443 1.543 2.104 2.068 1.468 1.165-.948-1.345-.596-2.202 1.952-4.75 1.71-1.71 3.455-3.109 3.879-3.109 1.366 0 5.074 3.692 5.139 5.117.035.761.484.333.999-.95 1.934-4.825-1.114-9.627-6.838-10.772-2.621-.524-3.649-.124-6.184 2.411m-79.227-1.123c.721.289 1.584.253 1.916-.079s-.258-.568-1.312-.525c-1.165.048-1.402.285-.604.604M93.112 53.5c-.155 5.201-2.994 9.742-7.395 11.83-4.396 2.086-7 2.104-11.27.078-4.114-1.953-5.297-3.325-7.018-8.149-1.207-3.383-1.346-3.49-1.385-1.068-.024 1.48.406 2.969.956 3.309s1 1.905 1 3.477c0 3.664 1.069 6.529 1.922 5.149.433-.701 2.051-.557 4.945.44 3.202 1.103 5.205 1.232 7.84.504l3.54-.977-.61 3.704c-.335 2.036-1.352 9.216-2.26 15.953L81.727 100H63.133l-.444-2.75c-.264-1.632-.415-1.023-.371 1.5l.073 4.25h10.605c5.832 0 11.06.456 11.617 1.013 1.526 1.526 4.834-25.309 3.441-27.913-1.59-2.97-1.348-6.15.417-5.473.808.31 2.588-.315 3.954-1.389 2.14-1.683 3.216-1.833 7.779-1.079 2.913.481 10.246 1.02 16.296 1.197 8.905.261 11.898.752 15.717 2.578 4.339 2.074 5.043 2.146 8.801.893 2.595-.865 4.735-2.449 5.868-4.344 1.575-2.633 1.639-3.569.545-7.983-1.006-4.061-1.257-4.432-1.335-1.973-.184 5.795-4.733 10.394-10.33 10.441-5.728.049-9.871-4.107-9.937-9.968-.027-2.475-.281-4.886-.564-5.357-.975-1.623-2.234 1.867-2.25 6.236L123 64.258l-4.75-.59c-2.612-.325-9.161-.896-14.553-1.27-8.503-.59-9.707-.893-9.08-2.289.398-.885.869-3.634 1.046-6.109.228-3.169.069-3.908-.535-2.5l-.858 2-.519-2c-.298-1.147-.57-.294-.639 2m37.13 9.75c1.887 2.857 7.791 3.575 10.134 1.232 2.271-2.272 2.083-3.798-.31-2.517-2.467 1.32-7.759 1.341-8.566.035-.34-.55-1.096-1-1.681-1-.625 0-.451.926.423 2.25m54.571-.567c.721.289 1.584.253 1.916-.079s-.258-.568-1.312-.525c-1.165.048-1.402.285-.604.604m-117.734 12.9c.048 1.165.285 1.402.604.605.289-.722.253-1.585-.079-1.917s-.568.258-.525 1.312M64.5 86c-.38 1.729-.482 3.351-.227 3.606s.751-.974 1.102-2.731.454-3.38.227-3.606c-.226-.227-.722 1.002-1.102 2.731m98.262 2.707c1.244.239 3.044.23 4-.02s-.062-.446-2.262-.435-2.982.216-1.738.455m14.507-.014c.973.254 2.323.237 3-.037s-.119-.481-1.769-.461-2.204.244-1.231.498M151 101.5c0 9.332.195 10.5 1.75 10.502s1.714-.945 1.427-8.5c-.178-4.676-.741-8.502-1.25-8.502-.51 0-.927-.675-.927-1.5 0-1.571 2.126-2.037 3.422-.75 1.11 1.101 6.957.914 7.813-.25.404-.55.741 3.35.75 8.667.01 6.809-.354 9.815-1.235 10.171-.747.301-.545.536.5.583 1.561.07 1.75-1.058 1.75-10.421V91h-14zm-22.805 0c.02 1.65.244 2.204.498 1.231s.237-2.323-.037-3-.481.119-.461 1.769M91.5 111c.995 1.1 2.035 2 2.31 2s-.315-.9-1.31-2-2.035-2-2.31-2 .315.9 1.31 2m-39.299 6.027c-.143 5.352.234 8.149 1.304 9.676 1.363 1.947 1.34 2.191-.25 2.607-.965.252 9.495.449 23.245.438s24.002-.213 22.782-.449c-1.872-.363-2.04-.714-1.075-2.258.9-1.442.695-2.962-.968-7.185L95.13 114.5l-.065 5.25L95 125H53.084l-.341-7.75-.341-7.75zM128.232 113c0 1.925.206 2.713.457 1.75.252-.963.252-2.537 0-3.5-.251-.963-.457-.175-.457 1.75m-54.982.703c-2.066.766-1.498 4.297.691 4.297 1.068 0 2.246-.493 2.618-1.096.86-1.39-1.649-3.816-3.309-3.201m-10.77 1.329c-.388.628-.235 1.613.34 2.188 1.344 1.344 4.477.172 3.93-1.471-.556-1.671-3.386-2.147-4.27-.717M82 116c0 1.646.518 2.065 2.25 1.82 1.237-.176 2.25-.995 2.25-1.82s-1.013-1.644-2.25-1.82c-1.732-.245-2.25.174-2.25 1.82m-37.187 13.683c.721.289 1.584.253 1.916-.079s-.258-.568-1.312-.525c-1.165.048-1.402.285-.604.604m153.937.023c1.238.238 3.262.238 4.5 0 1.238-.239.225-.434-2.25-.434s-3.488.195-2.25.434m17.25 2.672c0 .207.787.995 1.75 1.75 1.586 1.243 1.621 1.208.378-.378-1.307-1.666-2.128-2.195-2.128-1.372m-174.365 4.695c-3.315 2.607-3.515 7.029-.446 9.888 3.076 2.866 5.27 2.766 3.7-.169-1.655-3.091-1.332-7.646.702-9.893 1.459-1.612 1.489-1.899.199-1.899-.836 0-2.706.933-4.155 2.073m19.808.15c1.79 2.555 2.027 7.03.522 9.843-.929 1.735-.697 1.926 2.25 1.855 1.807-.043 2.723-.306 2.035-.583-2.855-1.152.06-5.338 3.716-5.338 1.641 0 3.017 4.347 1.658 5.235-.663.433-.233.741 1.049.75 2.08.014 2.11-.113.681-2.978-1.606-3.219-1.124-6.36 1.419-9.257 1.449-1.649 1.065-1.75-6.675-1.75h-8.211zm29 0C91.299 138.445 92 140.595 92 142s-.701 3.555-1.557 4.777c-1.529 2.184-1.49 2.221 2.25 2.107 2.094-.064 3.044-.317 2.112-.563-2.33-.614-1.197-3.067 2.238-4.843 2.166-1.12 2.913-1.168 3.3-.213.284.702.533.459.578-.565.043-.989.766-3.127 1.605-4.75l1.525-2.95H88.887zm28.942.242c2.037 3.109 2.058 6.458.058 9.312-1.528 2.183-1.488 2.222 2.25 2.144 2.094-.043 3.245-.306 2.557-.583-1.907-.77-1.533-4.139.442-3.977.93.077 2.273-.986 2.985-2.361l1.294-2.5.014 2.668c.008 1.468.273 3.341.588 4.163.355.923-.124 1.674-1.25 1.966-1.009.261-.347.523 1.484.587 3.223.113 3.267.06 1.75-2.107-1.959-2.796-1.967-5.083-.031-8.827l1.525-2.95H117.77zm29.089.485c1.936 3.744 1.928 6.031-.031 8.827-1.515 2.163-1.468 2.223 1.75 2.208 1.819-.009 2.785-.348 2.148-.753-1.317-.838 1.681-5.232 3.569-5.232.6 0 1.136-.562 1.192-1.25s.472.32.923 2.239c.56 2.383.448 3.725-.352 4.235-.707.449-.237.751 1.184.761 1.865.012 2.201-.35 1.609-1.735-1.622-3.792-1.643-7.331-.057-9.752l1.637-2.498h-15.097zm27.753-1.2c2.543 2.897 3.025 6.038 1.419 9.257L176.153 149l3.174-.015c2.348-.012 2.79-.258 1.702-.946-.809-.512-1.259-1.067-1-1.235 3.748-2.422 6.92-3.492 7.335-2.475.263.644.514-.191.557-1.856s.78-4.028 1.636-5.25l1.556-2.223h-8.211c-7.74 0-8.124.101-6.675 1.75m28.541-.914c2.261 1.435 3.111 6.547 1.662 9.994-1.33 3.162-1.325 3.17 1.741 3.17 2.607 0 2.887-.226 1.84-1.487-1.308-1.575-.731-4.513.886-4.513.528 0 1.619.659 2.424 1.464 1.286 1.286 1.531 1.212 2.006-.607.732-2.798-.795-6.502-3.213-7.796-2.325-1.244-9.287-1.458-7.346-.225m-155.387 3.705c-1.333 2.035-1.442 3.031-.544 5 .616 1.352 1.606 2.459 2.201 2.459.594 0 .802-.45.462-1-.352-.569.509-1 2-1 1.47 0 2.35.433 2.007.989-.35.566.051.734.941.393 1.864-.716 2.11-6.424.352-8.182-2.03-2.03-5.638-1.377-7.419 1.341m29.274-.712c-1.944 2.148-2.148 5.278-.455 6.971 1.405 1.405 3.177 1.62 2.353.285-.677-1.094 1.438-1.977 3.191-1.333.685.252.936.973.558 1.603-.377.63.075.527 1.006-.227 1.958-1.589 2.243-6.177.492-7.928-1.767-1.767-5.254-1.46-7.145.629m28.916-.258c-1.865 1.865-2.054 5.546-.371 7.229 1.386 1.386 4.19 1.64 3.365.305-.305-.493.223-1.193 1.172-1.557.949-.365 1.884-.184 2.079.401.667 2.001 2.184-.064 2.184-2.973 0-4.479-5.238-6.595-8.429-3.405m29.179-.491c-2.159 1.258-2.315 6.206-.25 7.92 1.158.961 1.825.975 2.926.062.784-.651 2.247-1.044 3.25-.873 1.368.233 1.908-.426 2.16-2.64.517-4.545-3.83-6.948-8.086-4.469m29 0c-2.01 1.171-2.349 5.921-.55 7.72 1.451 1.451 3.165 1.6 2.3.2-.34-.55.335-1 1.5-1 1.32 0 1.855.426 1.42 1.13-.424.685-.152.948.691.668.764-.254 1.809-1.649 2.321-3.099 1.641-4.642-3.236-8.208-7.682-5.619m28.862.214c-2.537 1.855-1.88 8.097.888 8.43 1.15.139 1.421-.016.637-.363-2.402-1.063.916-2.291 3.518-1.302 1.985.755 2.413.519 2.952-1.629.425-1.695.054-3.147-1.143-4.47-2.058-2.273-4.349-2.496-6.852-.666m25.751 3.627c-.127 4.839-2.32 8.488-6.355 10.575-2.618 1.354-13.101 1.505-87.925 1.271l-84.952-.267-2.994-2.869c-1.647-1.578-3.43-4.503-3.962-6.5-.557-2.087-1.022-2.781-1.095-1.631-.257 4.057 5.028 12.887 9.419 15.735l4.215 2.736 25.393-.017c13.966-.009 50.593-.005 81.393.008 31.542.013 57.739-.387 59.983-.917 4.18-.986 9.85-6.483 9.038-8.763-.239-.67-.064-1.446.387-1.725.937-.579.805-3.127-.312-6.057-.42-1.1-1.07-2.814-1.445-3.808-.443-1.175-.719-.396-.788 2.229M41 144.941c0 .518.45 1.219 1 1.559s1-.084 1-.941S42.55 144 42 144s-1 .423-1 .941m59.721 2.019c-.408 1.558-.055 2.04 1.495 2.04 1.776 0 1.862-.218.689-1.75-.736-.963-1.409-1.88-1.495-2.04-.086-.159-.396.629-.689 1.75m86.917.54c-.347.905-.005 1.5.862 1.5s1.209-.595.862-1.5c-.317-.825-.705-1.5-.862-1.5s-.545.675-.862 1.5m-12.074 45.207c-.542 1.425-.428 1.54.56.56.684-.679.991-1.486.683-1.793-.308-.308-.867.247-1.243 1.233M108.232 195c0 1.925.206 2.713.457 1.75.252-.963.252-2.537 0-3.5-.251-.963-.457-.175-.457 1.75m6.159 6.652c.06 5.033.447 8.944.859 8.691.931-.572.774-10.786-.228-14.843-.468-1.898-.7.362-.631 6.152M162 193.609c0 1.581 2.242 3.391 4.2 3.391.99 0 1.8-.436 1.8-.969s-.74-.684-1.645-.337c-1.007.386-2.17-.088-3-1.223-.745-1.019-1.355-1.407-1.355-.862m18.05.831c-.657.792-2.175 1.631-3.373 1.864-1.406.274-.967.472 1.24.56 1.879.075 3.12-.16 2.758-.522s-.156-1.262.456-2c.613-.738.889-1.342.614-1.342s-1.038.648-1.695 1.44m-120.914 4.511c.09 2.335.285 2.779.57 1.299.387-2.008 2.394-2.866 5.544-2.368.412.065.75-.283.75-.773 0-.489-1.575-1.074-3.5-1.299-3.439-.401-3.498-.347-3.364 3.141m14.677-2.268c.721.289 1.584.253 1.916-.079s-.258-.568-1.312-.525c-1.165.048-1.402.285-.604.604m44 0c.721.289 1.584.253 1.916-.079s-.258-.568-1.312-.525c-1.165.048-1.402.285-.604.604m9 0c.721.289 1.584.253 1.916-.079s-.258-.568-1.312-.525c-1.165.048-1.402.285-.604.604m-55.798 2.112c-.023 3.563-4.305 7.205-8.47 7.205-3.456 0-3.541.094-3.395 3.75.113 2.838.248 3.107.556 1.105.333-2.169 1.184-2.842 4.722-3.732 2.373-.598 5.012-1.354 5.864-1.681 1.071-.411 1.686.123 1.992 1.732.244 1.279.498.076.565-2.674s-.316-5.675-.849-6.5c-.781-1.208-.972-1.053-.985.795m10.985.802c0 .695-1.013 1.408-2.25 1.583-2.018.287-2.281.958-2.546 6.506-.262 5.466-.553 6.237-2.5 6.614-1.834.356-1.742.451.546.564 2.676.132 2.75-.009 2.75-5.242 0-4.867 1.689-8.599 3.207-7.082.287.287 1.219-.542 2.071-1.842 1.294-1.974 1.316-2.365.136-2.365-.778 0-1.414.569-1.414 1.264m47.845 5.903-.345 8-4.964.211c-3.406.145-5.525-.296-6.75-1.405-1.971-1.783-2.504-.424-.586 1.494 1.401 1.401 12.414 1.634 13.25.28.929-1.502 1.294-12.472.486-14.607-.462-1.223-.877 1.068-1.091 6.027M182 198.378c0 .207.787.995 1.75 1.75 1.586 1.243 1.621 1.208.378-.378-1.307-1.666-2.128-2.195-2.128-1.372m3.918 1.872c-.283 7.736-2.486 12.352-6.358 13.324-3.604.905-6.474-.385-8.586-3.857-1.907-3.136-2.435-2.847-3.171 1.739-.172 1.076-1.436 2.289-2.808 2.696-2.34.694-2.311.728.465.544 2.224-.147 3.133-.818 3.651-2.696.379-1.375.734-1.974.789-1.332.055.643 1.667 2.138 3.583 3.321 3.156 1.951 3.824 2.03 7.126.836 2.003-.725 3.874-1.92 4.156-2.655.349-.911.729-.989 1.189-.245.371.601.744-2.286.828-6.416s-.057-7.509-.314-7.509c-.258 0-.505 1.012-.55 2.25m-17.903-.059c-.021 2.346 1.641 3.148 2.404 1.16.345-.9.392-1.873.105-2.161s-.531.114-.539.893c-.013 1.167-.187 1.152-.985-.083-.835-1.293-.971-1.266-.985.191M146.29 202c-.621 2.374-3.82 2.668-4.679.43-.815-2.126-4.994-1.435-5.439.899-.688 3.604.752 6.674 3.097 6.608l2.231-.064-2.25-.904c-2.907-1.169-3.206-5.969-.372-5.969 1.032 0 2.454.695 3.16 1.546.705.85 1.885 1.314 2.622 1.031 2.238-.859 1.575 4.126-.849 6.384-2.857 2.662-6.597 2.589-9.552-.187-2.183-2.052-2.312-2.071-1.637-.25 1.045 2.821 2.322 3.443 7.096 3.461 3.562.013 4.436-.4 5.616-2.654l1.399-2.669 1.748 2.669c1.434 2.188 2.503 2.669 5.934 2.669 3.934 0 6.585-1.311 6.585-3.257 0-.471-1-.156-2.223.7-3.227 2.261-6.511 1.914-9.419-.994-2.125-2.125-2.492-3.295-2.197-7 .374-4.711-.003-5.771-.871-2.449m15.003-.011c-.286 1.094-.828 1.798-1.204 1.566-1.376-.85-2.989.989-2.112 2.407.747 1.21 1.118 1.206 2.615-.026 1.607-1.323 1.698-1.195 1.142 1.611-.331 1.676-.189 3.701.316 4.5.612.968.924-.801.935-5.297.015-6.668-.681-8.627-1.692-4.761m-73.584-.365c-.981.981-.894 7.144.11 7.764.451.279.637-.733.415-2.248-.249-1.697.2-3.255 1.169-4.06 1.68-1.393 1.846-1.202 2.964 3.42.266 1.1.405.425.308-1.5-.134-2.69-.647-3.568-2.216-3.792-1.123-.161-2.36.027-2.75.416m15.725 1.783c-.774 3.082 1.198 6.809 3.383 6.395 1.2-.228 1.771-1.537 1.99-4.561.287-3.955.137-4.241-2.23-4.241-1.848 0-2.703.655-3.143 2.407M120 204.5c0 1.925.436 3.5.97 3.5.533 0 .91-1.575.838-3.5s-.509-3.5-.97-3.5-.838 1.575-.838 3.5m3.975.704c-.265 2.586-.112 4.333.34 3.881s.669-2.568.482-4.703l-.339-3.882zM152 201.918c0 .505-.273 1.63-.607 2.5s-.109 1.582.5 1.582 1.107-.675 1.107-1.5c0-1.353 1.187-1.944 3.25-1.618.412.065.75-.332.75-.882s-1.125-1-2.5-1-2.5.413-2.5.918m22.607.664c-.889 2.316-.741 5.217.3 5.86.498.309.671-.34.383-1.441-.304-1.163-.031-2.001.652-2.001.647 0 .917-.419.601-.931s-.068-1.245.552-1.628 1.521-.077 2.001.681c.691 1.09.877 1.012.889-.372.019-2.255-4.523-2.397-5.378-.168m17.06-.915c-.367.366-.66 2.504-.652 4.75.012 3.004.272 3.687.985 2.583.533-.825.976-2.738.985-4.25.029-5.221 1.916-2.734 2.276 3l.361 5.75.189-6.25c.165-5.463-.042-6.25-1.644-6.25-1.009 0-2.134.3-2.5.667m-93.978 4.285c-2.019 9.684-11.92 10.911-15.405 1.91-1.254-3.237-1.28-3.251-.719-.362.718 3.691 3.793 7.122 7.136 7.961 2.648.665 7.051-1.511 8.699-4.299.758-1.28 1.238-1.1 3.014 1.128 2.184 2.739 3.536 3.138 9.729 2.868 2.349-.102 3.867-.741 4.273-1.799.466-1.215.299-1.391-.643-.675-.7.531-3.352 1.032-5.893 1.114-5.493.175-7.863-1.851-8.834-7.551l-.638-3.747zM105 206q0 3 1.5 3t1.5-3-1.5-3-1.5 3m95.961 1.959c-.405 4.792-.767 5.544-2.961 6.151l-2.5.691 2.781.099c3.355.121 3.946-1.155 3.49-7.527l-.349-4.873zm-48.306 1.291c.254.412 1.085.75 1.845.75s1.591-.338 1.845-.75c.255-.412-.575-.75-1.845-.75s-2.1.338-1.845.75m-97.386 5.443c.973.254 2.323.237 3-.037s-.119-.481-1.769-.461-2.204.244-1.231.498m132.481-.031c.688.278 1.813.278 2.5 0 .688-.277.125-.504-1.25-.504s-1.937.227-1.25.504"/></svg>